<svg version="1.1" id="Layer_1" xmlns="http://www.w3.org/2000/svg" xmlns:xlink="http://www.w3.org/1999/xlink" x="0px" y="0px"
	 width="100%" viewBox="0 0 512 512" enable-background="new 0 0 512 512" xml:space="preserve">
<path fill="#000000" opacity="1.000000" stroke="none" 
	d="
M513.000000,381.531311 
	C498.865906,378.207092 484.740326,374.381897 470.593842,370.635895 
	C464.160645,368.932312 457.648529,367.518402 451.244537,365.716003 
	C447.584625,364.685974 445.315887,365.827332 443.290100,368.899628 
	C437.231720,378.087708 430.951202,387.124878 422.204071,394.075714 
	C414.112885,400.505310 404.897919,404.628418 394.982239,407.292664 
	C392.744690,407.893890 390.559845,408.556641 387.985504,410.241577 
	C392.705963,416.625549 398.456604,421.328491 404.656860,425.366241 
	C409.501617,428.521332 413.669006,432.183380 416.927399,436.911499 
	C421.528900,443.588562 427.822205,446.404633 435.965454,446.899109 
	C450.904022,447.806213 465.749786,450.079834 480.784454,449.739166 
	C484.543335,449.654022 485.282471,451.555511 483.280975,454.908356 
	C482.016083,457.027283 480.062958,458.302246 477.872742,459.149170 
	C460.333557,465.931549 442.941132,473.203003 424.098480,475.772827 
	C423.109131,475.907776 422.121674,476.166443 421.132019,476.173157 
	C388.324402,476.395996 355.465942,478.656464 322.728485,476.015320 
	C304.023285,474.506256 285.671112,469.792603 267.567230,464.589539 
	C245.589325,458.273041 224.538666,449.425659 203.523453,440.589935 
	C191.451065,435.514160 178.833649,433.973969 166.148758,432.302185 
	C154.277985,430.737671 142.395493,429.316895 130.560349,427.441193 
	C115.285263,425.020355 104.942314,416.281616 97.534790,403.307037 
	C92.865532,395.128632 89.616051,386.343048 87.816948,377.181763 
	C85.552994,365.653351 80.176720,355.161469 77.503586,343.806793 
	C76.817940,340.894379 74.491158,340.020660 71.994331,339.409302 
	C62.766136,337.149811 53.503853,335.194824 43.918533,335.222107 
	C29.923161,335.261902 15.927376,335.157379 1.465883,335.057190 
	C1.000000,331.307098 1.000000,327.614166 1.000000,323.460632 
	C9.433610,322.307312 17.166639,320.231873 24.008625,314.609192 
	C32.372005,307.736206 42.998680,306.677704 53.263474,305.840515 
	C80.202484,303.643311 106.759537,306.165283 132.829865,313.517548 
	C139.497406,315.397888 145.399933,318.846893 151.375931,322.099762 
	C159.041092,326.272064 166.984528,327.927551 175.770645,327.978210 
	C201.420700,328.126007 227.085693,328.541840 252.707870,329.682709 
	C270.459991,330.473175 287.008423,327.996948 303.724884,321.173584 
	C340.140900,306.309174 374.930054,288.703705 407.310913,266.391327 
	C419.263947,258.154999 430.945679,249.518982 440.173462,238.134918 
	C446.051636,230.883102 451.184235,223.203613 447.561584,213.089340 
	C446.951324,211.385468 446.203247,209.642944 445.130066,208.209351 
	C441.829407,203.800186 439.432526,203.682541 435.382690,207.333145 
	C421.368683,219.965652 406.280914,230.725937 387.303955,234.605774 
	C371.632751,237.809769 356.174194,235.697144 340.717926,232.818451 
	C315.225403,228.070511 290.659729,220.413254 266.922272,209.984970 
	C260.390289,207.115341 254.595428,203.145142 249.722092,198.160416 
	C242.241791,190.509186 233.718002,186.709259 222.870361,186.123550 
	C208.975174,185.373306 197.844910,175.350128 195.188004,163.326065 
	C194.248062,159.072281 195.318359,155.636871 199.633987,154.686447 
	C217.467209,150.759048 222.683411,136.334671 226.800369,121.581116 
	C229.616943,111.487602 231.912445,101.262169 235.589630,91.413490 
	C236.792313,88.192345 237.605865,84.825912 238.690201,81.216957 
	C236.356888,81.608635 235.452774,83.132240 234.181641,84.085182 
	C230.440552,86.889793 228.254364,86.102310 227.262192,81.476189 
	C226.502029,77.931915 227.434494,74.888100 230.066162,72.375328 
	C232.754120,69.808838 235.877884,67.821571 239.280212,66.477112 
	C250.282379,62.129505 259.797119,55.339989 268.875610,48.044567 
	C280.150146,38.984440 293.160126,35.132469 307.135345,33.768585 
	C329.231415,31.612148 350.991241,35.118484 372.771362,38.052273 
	C385.009003,39.700680 397.049835,42.265854 408.687408,46.446281 
	C440.034088,57.706547 456.720795,80.962555 462.285858,112.918381 
	C466.147034,135.090179 465.999542,157.179993 456.724640,178.167984 
	C451.634216,189.686996 451.785828,199.653214 459.408936,210.255447 
	C466.772919,220.497314 472.345093,232.008820 479.057709,242.741608 
	C492.246216,263.828613 498.678101,287.442078 505.237640,311.045929 
	C507.508911,319.218872 510.128571,327.295044 512.794556,335.707703 
	C513.000000,351.020905 513.000000,366.041779 513.000000,381.531311 
M272.468628,58.979298 
	C271.691406,59.607941 270.955231,60.297348 270.130035,60.855022 
	C265.879120,63.727802 265.575806,66.842262 269.115601,70.644180 
	C270.675079,72.319160 271.767456,74.473946 272.861053,76.523407 
	C273.711212,78.116699 274.607300,79.916672 272.926666,81.579666 
	C271.316345,83.173088 269.381561,83.363373 267.393036,82.426865 
	C265.896423,81.722015 264.438019,80.908394 263.046570,80.012756 
	C257.283539,76.303276 256.035797,76.554039 252.502502,82.558510 
	C249.878769,87.017258 247.829559,91.750923 245.948059,96.571213 
	C241.422531,108.165192 240.601181,107.262192 253.245041,109.901527 
	C257.804321,110.853241 262.479401,111.707047 265.814911,115.429054 
	C267.167999,116.938957 268.390625,118.796494 267.662323,120.848717 
	C266.858124,123.114799 264.494781,122.564423 262.861115,122.292137 
	C255.814835,121.117714 250.063965,122.726486 246.109070,129.087524 
	C245.606033,129.896606 244.716904,130.579468 243.855209,131.033295 
	C238.265213,133.977417 236.421951,139.212631 235.105377,144.864304 
	C233.449860,151.971024 234.933914,154.943314 241.759811,157.684738 
	C248.935867,160.566788 256.482056,162.138519 264.111176,162.603256 
	C295.041260,164.487473 326.013519,165.118561 357.000946,165.054214 
	C359.822205,165.048355 362.089630,164.330200 364.165070,162.282440 
	C388.590302,138.182755 412.865967,113.909576 440.425568,93.277016 
	C442.960144,91.379509 443.109100,89.485786 441.526672,86.892815 
	C435.979004,77.802315 429.270599,69.747231 419.979736,64.374939 
	C403.143555,54.639706 384.685577,49.842686 365.546021,47.299110 
	C347.148956,44.854214 328.646912,45.746925 310.181824,45.258224 
	C295.865173,44.879314 283.783203,49.562592 272.468628,58.979298 
M327.485626,373.053131 
	C323.330017,370.594025 319.215668,368.061554 315.008728,365.693695 
	C309.341766,362.504059 307.263275,363.009247 302.787201,368.559509 
	C306.068268,371.098389 309.408905,373.559967 312.612183,376.188904 
	C318.456879,380.985535 323.578705,386.412659 326.775604,393.398041 
	C327.816223,395.671814 328.435394,397.842224 325.329620,399.153320 
	C315.681915,403.226105 306.472412,408.370789 296.216248,410.950531 
	C285.697601,413.596375 285.676483,413.631561 279.663696,404.737152 
	C276.741241,400.414124 273.673645,396.307678 268.534027,394.367981 
	C265.980652,393.404297 264.492920,393.936737 263.849152,396.840424 
	C263.079712,400.310883 263.086700,403.795959 263.192535,407.278748 
	C263.419830,414.760223 263.856964,422.235168 264.115051,429.715973 
	C264.177002,431.511627 264.268646,433.570007 261.992188,434.286011 
	C260.087860,434.884979 258.332001,434.299164 256.921783,432.957275 
	C255.842682,431.930450 254.773911,430.831146 253.967163,429.590698 
	C250.903961,424.880737 246.706680,421.407532 242.163086,418.238770 
	C231.423721,410.749023 219.724258,405.175934 207.377411,400.980927 
	C202.596909,399.356720 197.878693,397.167267 192.623276,397.095764 
	C192.484756,400.834351 192.668640,401.307495 193.677124,404.161072 
	C197.812500,415.862305 206.113449,423.205536 216.476227,429.974884 
	C239.518646,445.027039 264.673645,454.102356 291.222168,459.608398 
	C331.414856,467.944275 372.139679,469.119476 412.990082,466.595398 
	C422.974640,465.978455 432.686523,463.424164 443.372528,459.670532 
	C440.700806,459.144714 439.404175,458.690216 438.098694,458.663422 
	C425.126160,458.396698 414.945648,452.214447 405.833099,443.653259 
	C397.337463,435.671753 388.717682,427.821503 380.273590,419.786285 
	C373.551788,413.389923 366.127411,409.377197 356.444214,411.214325 
	C354.798828,411.526520 352.484741,412.077209 351.526947,409.959869 
	C350.499146,407.687683 351.993774,405.836487 353.378723,404.128784 
	C355.249023,401.822662 358.466949,400.967712 360.177155,397.772705 
	C350.242096,388.640137 339.528381,380.579254 327.485626,373.053131 
M368.177795,211.410233 
	C374.496674,210.386826 380.781525,209.995743 386.804199,212.782013 
	C388.262482,213.456650 390.224213,213.930267 390.287018,215.937836 
	C390.353088,218.050018 388.316193,218.438171 386.850616,219.033966 
	C383.919250,220.225647 380.819305,220.817307 377.713135,221.457062 
	C372.374817,222.556595 366.668182,221.676926 360.403229,224.507599 
	C370.706299,227.601959 379.894958,228.293716 388.805756,224.397827 
	C406.453735,216.681931 421.152039,204.705658 434.859253,191.427032 
	C439.692474,186.744934 443.595245,181.303421 446.220581,175.122055 
	C454.088409,156.597488 456.463593,137.308487 453.400116,117.427292 
	C452.653931,112.584572 451.731842,107.649925 448.812500,103.445549 
	C445.596466,104.092003 443.527618,106.120789 441.276306,107.747948 
	C420.663055,122.646439 402.639038,140.410919 385.253479,158.838593 
	C376.749329,167.852509 367.145233,176.140030 364.296692,189.217575 
	C363.591827,192.453506 360.849152,195.185776 357.534607,196.160187 
	C337.732422,201.981689 318.302246,204.728561 301.483978,188.411682 
	C297.300568,184.352982 292.873077,180.446823 287.250061,178.456863 
	C272.413391,173.206207 256.707428,173.308273 241.200760,170.525482 
	C241.417480,171.505188 241.407883,171.867355 241.570236,172.118256 
	C242.021271,172.815277 242.520493,173.484787 243.041550,174.132294 
	C254.303543,188.127136 267.519928,199.168839 284.942230,205.183929 
	C303.663727,211.647537 322.146912,218.777954 341.366150,223.713531 
	C343.671478,224.305527 346.028351,225.105972 347.537659,222.393494 
	C351.864929,214.616791 359.406708,212.777771 368.177795,211.410233 
M444.918579,250.520081 
	C429.150665,266.102051 410.869324,278.234863 391.895416,289.478912 
	C367.230255,304.095642 342.686584,318.907623 315.021271,327.442200 
	C313.401276,327.942017 311.943665,328.968048 309.256165,330.337250 
	C319.757233,331.046265 328.867249,331.399658 337.918304,332.327850 
	C355.823395,334.164001 373.464905,337.748779 391.068939,341.354858 
	C403.587952,343.919250 416.440308,345.185791 428.381500,350.345062 
	C432.344635,352.057404 435.787628,350.440826 438.460327,347.008148 
	C445.055206,338.538055 447.979858,328.754639 448.642883,318.254364 
	C450.019440,296.453979 449.783051,274.621124 449.596130,252.793488 
	C449.579895,250.898849 449.353882,249.006012 449.225342,247.112335 
	C448.783752,246.847076 448.342133,246.581818 447.900543,246.316559 
	C447.069366,247.559784 446.238220,248.803024 444.918579,250.520081 
M268.427643,344.934540 
	C264.394073,346.305084 260.377350,347.711121 255.824265,350.738373 
	C262.701660,351.044525 268.452576,351.063049 274.153900,350.136169 
	C293.731049,346.953430 311.997192,349.275604 329.280548,360.183563 
	C343.481873,369.146423 356.737366,379.071838 368.393646,391.057068 
	C375.155945,398.010162 382.741089,399.312378 391.659973,396.727997 
	C404.551758,392.992371 415.056366,385.643158 423.936798,375.809418 
	C427.568909,371.787384 431.404236,367.851685 433.500366,363.031311 
	C432.492462,361.159668 431.031433,360.989136 429.806488,360.719604 
	C410.958008,356.573181 392.273254,351.708771 373.267181,348.243774 
	C354.888550,344.893219 336.343292,343.318054 317.748444,341.935059 
	C301.411743,340.720032 285.155640,339.943390 268.427643,344.934540 
M486.565094,285.905609 
	C480.196808,267.391693 471.787598,249.888214 460.603546,232.383011 
	C460.437714,234.654663 460.319824,235.623428 460.303070,236.593948 
	C459.955902,256.734100 459.787903,276.879150 458.128601,296.973541 
	C456.696960,314.311371 458.631287,332.035248 452.114532,348.785400 
	C450.774567,352.229462 452.217896,353.985504 455.611816,354.967560 
	C469.038757,358.852753 482.337860,363.188904 495.991119,366.265228 
	C509.319489,369.268402 511.618561,367.138367 507.145691,354.038177 
	C499.556000,331.809601 493.788452,309.053680 486.565094,285.905609 
M151.796265,365.251251 
	C160.978439,360.769501 170.160599,356.287750 179.186920,351.882050 
	C178.492035,348.580597 176.279297,347.859253 174.413086,346.904327 
	C166.555908,342.883881 158.425293,339.346008 150.803574,334.926453 
	C121.473488,317.919006 89.670158,313.128510 56.445072,315.522614 
	C47.321121,316.180023 38.625523,318.966278 30.566004,324.212006 
	C32.616947,325.355682 34.451477,324.932800 36.202576,324.944122 
	C45.865139,325.006653 55.528435,324.963806 65.190842,325.038910 
	C72.295998,325.094147 78.972977,326.596619 85.182922,330.360352 
	C102.894257,341.094910 117.390221,354.528168 123.990616,374.921539 
	C124.629852,376.896606 125.140251,379.127808 127.650352,380.429382 
	C135.356018,375.435028 142.815918,369.806030 151.796265,365.251251 
M154.864670,376.401917 
	C150.553253,379.064270 146.241837,381.726654 141.930435,384.389008 
	C141.991928,384.809296 142.053421,385.229614 142.114914,385.649902 
	C179.943298,385.293579 217.987610,383.953217 250.371689,409.801544 
	C252.525894,403.775482 251.234955,398.558533 251.917282,393.554230 
	C252.566742,388.790985 250.178223,386.989685 245.870361,386.437592 
	C240.259933,385.718567 234.638245,384.961517 229.106903,383.810120 
	C226.734497,383.316254 223.795502,384.142487 221.321609,381.291565 
	C226.730148,380.167145 231.419800,380.717804 236.147339,381.393402 
	C254.407654,384.003113 255.852402,383.215424 264.033508,366.716125 
	C264.181396,366.417877 264.343506,366.126373 264.506226,365.835754 
	C266.176605,362.852234 265.075684,361.447723 261.883636,361.365662 
	C242.358215,360.863678 222.839005,360.757172 202.506546,362.137817 
	C204.962357,362.760590 206.670151,362.922394 208.123993,363.616302 
	C211.628464,365.288971 212.101120,368.595306 208.843643,370.557007 
	C200.855148,375.367798 192.201050,375.690186 183.330627,373.520264 
	C190.455414,370.226532 198.574463,371.291840 206.504578,368.018494 
	C201.045059,365.183319 196.522232,362.436249 190.592621,363.496368 
	C178.169937,365.717407 166.432739,369.712524 154.864670,376.401917 
M134.608459,416.794769 
	C151.934830,420.747864 169.413589,423.034149 187.992249,422.534729 
	C185.963882,414.165375 181.888824,407.828552 179.146957,400.966400 
	C177.445816,396.708893 174.684357,395.130554 169.947983,395.174469 
	C156.980362,395.294830 143.995056,395.938568 131.036194,394.338287 
	C123.767532,393.440643 118.573799,390.204285 115.551239,383.471375 
	C114.122131,380.288025 112.625572,377.107605 110.835739,374.119873 
	C108.107895,369.566284 103.994209,368.168823 98.528374,369.552612 
	C96.974586,388.677948 114.343460,411.870392 134.608459,416.794769 
M313.973511,382.525299 
	C309.865356,378.359619 305.275299,374.824890 300.191193,371.923340 
	C284.243225,362.821625 276.934387,365.158966 269.301025,381.824005 
	C269.024261,382.428223 268.762756,383.039459 268.483185,383.642334 
	C267.427338,385.919434 267.846405,387.702332 269.959686,389.244598 
	C276.079773,393.711029 280.841827,399.470612 285.012970,405.717102 
	C286.873596,408.503448 289.025055,409.139160 292.234070,408.173218 
	C302.278931,405.149750 311.814026,400.816345 321.571381,397.057770 
	C322.284515,396.783081 322.836456,396.089844 323.797150,395.325623 
	C321.335083,390.594635 317.981354,386.757507 313.973511,382.525299 
M350.538910,186.114792 
	C351.454803,185.397415 352.467529,184.773239 353.266418,183.943268 
	C354.930573,182.214355 356.444489,180.147034 355.481659,177.705124 
	C354.553589,175.351334 352.020752,176.152023 350.146515,176.089111 
	C341.159637,175.787415 332.167511,175.454376 323.178253,175.479309 
	C317.781219,175.494263 312.385986,176.145706 306.745422,176.527649 
	C313.114624,188.791321 335.844635,193.776367 350.538910,186.114792 
M197.948837,338.750397 
	C194.086945,338.333710 190.222733,337.804474 186.059601,338.544250 
	C197.831009,354.196289 236.616241,355.954407 245.582199,341.407501 
	C229.915497,340.559357 214.390839,339.718903 197.948837,338.750397 
M222.941559,167.160400 
	C218.821793,167.080566 214.535492,166.019424 210.677109,168.748856 
	C214.657516,174.824539 220.679764,176.911575 227.889389,174.906174 
	C227.756332,171.703354 228.346176,168.191711 222.941559,167.160400 
z"/>
<path fill="#000000" opacity="1.000000" stroke="none" 
	d="
M305.857025,88.672714 
	C327.019501,86.058754 346.299286,90.757652 364.535431,100.362549 
	C368.928223,102.676216 373.728607,104.402565 377.400879,107.919518 
	C379.268066,109.707733 382.100616,111.741348 380.663666,114.523834 
	C379.048492,117.651428 375.612305,117.347282 372.667206,116.142220 
	C366.358368,113.560814 359.928864,111.177193 353.889771,108.053314 
	C339.831726,100.781418 325.006134,98.571312 309.406342,99.979469 
	C303.277802,100.532661 297.089539,100.620461 291.031982,99.169853 
	C288.513489,98.566734 285.721191,98.300270 283.858032,95.137566 
	C290.479614,90.820679 297.994507,89.912621 305.857025,88.672714 
z"/>
<path fill="#000000" opacity="1.000000" stroke="none" 
	d="
M301.705627,135.001434 
	C299.567932,130.679749 299.253387,126.356476 298.906036,122.043633 
	C298.680328,119.240524 299.707916,117.670280 302.810760,117.632523 
	C315.807159,117.474358 328.760742,117.803856 341.530762,120.556297 
	C344.651154,121.228874 347.450348,122.495598 349.677917,125.655891 
	C345.749969,128.587952 341.389679,128.670166 337.240723,128.989685 
	C332.105713,129.385193 326.929993,129.226425 321.774414,129.388306 
	C317.506714,129.522263 314.223328,131.082642 312.121063,135.195526 
	C308.421051,142.434265 306.471954,142.379425 301.705627,135.001434 
z"/>
<path fill="#000000" opacity="1.000000" stroke="none" 
	d="
M361.485107,435.578857 
	C346.248352,444.667023 330.356140,450.868378 313.089630,453.780762 
	C312.363861,446.399597 314.512177,444.454742 320.089630,446.784058 
	C322.181305,447.657623 324.048431,446.894287 325.907043,446.401428 
	C340.515167,442.527924 353.953339,436.187744 366.047211,427.072205 
	C368.315735,425.362274 368.324951,425.374481 371.578156,424.568176 
	C369.869812,429.880280 365.892548,432.684113 361.485107,435.578857 
z"/>
<path fill="#000000" opacity="1.000000" stroke="none" 
	d="
M346.960327,455.734283 
	C362.809906,452.283844 376.555389,444.402954 391.735321,437.839172 
	C387.439545,447.511688 351.597290,461.557983 342.406433,457.896912 
	C343.326172,456.130341 345.117950,456.267822 346.960327,455.734283 
z"/>
<path fill="#000000" opacity="1.000000" stroke="none" 
	d="
M311.644836,437.791687 
	C316.675873,437.086487 320.285095,434.240112 324.168030,432.032867 
	C329.387817,429.065704 334.540741,425.971283 340.346008,424.270355 
	C341.945404,423.801727 343.638641,422.529572 345.415985,423.949677 
	C345.350861,425.528809 344.068634,425.881073 343.121857,426.380371 
	C332.672485,431.890503 322.916779,438.732697 311.691528,442.755951 
	C308.279053,443.979034 305.477173,444.030792 304.618134,439.608612 
	C306.501526,437.297058 309.066772,438.327606 311.644836,437.791687 
z"/>
<path fill="#000000" opacity="1.000000" stroke="none" 
	d="
M304.458069,429.856323 
	C304.184357,428.645813 304.789795,428.103058 305.623901,427.840149 
	C315.978394,424.576569 325.591614,419.566071 335.474548,415.192169 
	C336.400482,414.782379 337.306091,414.456238 339.573303,415.429901 
	C329.109375,424.538391 317.549286,428.735260 304.458069,429.856323 
z"/>
<path fill="#000000" opacity="1.000000" stroke="none" 
	d="
M238.271362,373.609192 
	C240.563995,373.828918 242.655075,373.428467 244.439392,375.708557 
	C237.465988,378.992523 230.761841,378.701752 222.935852,376.793732 
	C228.057236,372.930908 233.032440,373.600922 238.271362,373.609192 
z"/>
</svg>